<svg xmlns="http://www.w3.org/2000/svg" viewBox="0 0 32 32">
    <path fill="#202020" d="M2.9 16.9v11.3c0 1 .8 1.9 1.9 1.9h9.4V16.9H2.9zM29.1 9.4h-5.9c.4-.3.8-.6 1-.8 1.5-1.5 1.5-4 0-5.5s-4-1.5-5.5 0c-.8.8-3 4.1-2.7 6.4h-.1c.3-2.2-1.9-5.5-2.7-6.4-1.5-1.5-4-1.5-5.5 0s-1.5 4 0 5.5c.3.3.6.5 1 .8H2.9c-1 0-1.9.8-1.9 1.9v2.8c0 .5.4.9.9.9h12.2v-3.8h3.8V15h12.2c.5 0 .9-.4.9-.9v-2.8c0-1-.8-1.9-1.9-1.9zM14 9.4s-.1.1-.3.1c-1.3 0-3.8-1.3-4.6-2.2-.8-.8-.8-2.1 0-2.9.4-.4.9-.6 1.4-.6.5 0 1 .2 1.4.6 1.3 1.3 2.6 4.5 2.1 5zm4.3 0c-.3 0-.3-.1-.3-.1-.4-.5.8-3.7 2.1-5 .8-.8 2.1-.8 2.8 0 .8.8.8 2.1 0 2.9-.8.9-3.3 2.2-4.6 2.2zM17.9 16.9V30h9.4c1 0 1.9-.8 1.9-1.9V16.9H17.9z"/>
</svg>
