<svg xmlns="http://www.w3.org/2000/svg" viewBox="0 0 32 32">
    <path d="M16 3.7c4 0 4.5 0 6.1.1 4.1.2 6 2.1 6.1 6.1.1 1.6.1 2.1.1 6.1 0 4 0 4.5-.1 6.1-.2 4-2.1 6-6.1 6.1-1.6.1-2.1.1-6.1.1-4 0-4.5 0-6.1-.1-4.1-.2-6-2.1-6.1-6.1-.1-1.6-.1-2.1-.1-6.1 0-4 0-4.5.1-6.1.2-4 2.1-6 6.1-6.1 1.6-.1 2.1-.1 6.1-.1zM16 1c-4.1 0-4.6 0-6.2.1-5.4.2-8.5 3.3-8.7 8.7C1 11.4 1 11.9 1 16s0 4.6.1 6.2c.3 5.4 3.3 8.5 8.7 8.7 1.6.1 2.1.1 6.2.1s4.6 0 6.2-.1c5.4-.3 8.5-3.3 8.7-8.7.1-1.6.1-2.1.1-6.2s0-4.6-.1-6.2c-.2-5.4-3.3-8.5-8.7-8.7C20.6 1 20.1 1 16 1zm0 7.3c-4.3 0-7.7 3.4-7.7 7.7s3.4 7.7 7.7 7.7 7.7-3.4 7.7-7.7c0-4.3-3.4-7.7-7.7-7.7zM16 21c-2.8 0-5-2.2-5-5s2.2-5 5-5 5 2.2 5 5-2.2 5-5 5zm8-14.8c-1 0-1.8.8-1.8 1.8S23 9.8 24 9.8 25.8 9 25.8 8 25 6.2 24 6.2z" fill="#fff"/>
</svg>
