<svg xmlns="http://www.w3.org/2000/svg" viewBox="0 0 32 32">
    <g fill="#7b7b7b">
        <path d="M21.9 25.1h-4.5v-4c0-1.4-1.1-2.5-2.5-2.5h-3v-2.8l6.9-4.9c.1-.1.2-.2.2-.3 0-.1 0-.3-.1-.4l-1.5-2c-.2-.2-.5-.3-.7-.1l-5.2 3.6c.9-1.7.3-3.9-1.5-4.8-1.8-1-3.9-.3-4.8 1.4-.7 1.4-.5 3.1.7 4.2h-.6c-.1 0-.3.1-.4.2l-3.3 3.6c-.9 1-.9 2.5.1 3.5l2.7 2.7c.1.1.3.2.4.1.1 0 .3-.1.4-.2l.6-.8v9.1c0 .3.2.5.5.5h3c.3 0 .5-.2.5-.5v-8.1h3.5v2.5h-1.5c-.3 0-.5.2-.5.5v5c0 .3.2.5.5.5h10.1c.3 0 .5-.2.5-.5v-5c0-.3-.2-.5-.5-.5zM5.8 9.9c0-1.4 1.1-2.5 2.5-2.5s2.5 1.1 2.5 2.5-1.1 2.5-2.5 2.5-2.5-1.1-2.5-2.5zm3.7 3.6l-.7 1.4-.7-1.4h1.4zm-3.7 5.4L5 18l.8-.8v1.7zm3.5 2.6c-.3 0-.5.2-.5.5v8.1h-2V16c0-.2-.1-.4-.3-.5-.2-.1-.4 0-.5.1l-2 2c-.2.2-.2.5 0 .7L5.6 20l-.9 1.2L2.4 19c-.6-.6-.6-1.5-.1-2.1l3.1-3.5H7l1.4 2.7c.1.2.4.3.7.2.1 0 .2-.1.2-.2l1.5-2.9L16.9 9l.9 1.2-6.8 4.9c-.1.1-.2.2-.2.4V19c0 .3.2.5.5.5h3.5c.8 0 1.5.7 1.5 1.5v4h-2v-3c0-.3-.2-.5-.5-.5H9.3zm12.1 8.6h-9.1v-4h9.1v4zM30.5 4.9c-2 0-3.5-1.6-3.5-3.5 0-.3-.2-.5-.5-.5s-.5.2-.5.5c0 2-1.6 3.5-3.5 3.5-.3 0-.5.2-.5.5s.2.5.5.5c2 0 3.5 1.6 3.5 3.5 0 .3.2.5.5.5s.5-.2.5-.5c0-2 1.6-3.5 3.5-3.5.3 0 .5-.2.5-.5s-.2-.5-.5-.5zm-4 2.5c-.4-.8-1.1-1.5-2-2 .8-.4 1.5-1.1 2-2 .4.8 1.1 1.5 2 2-.9.4-1.6 1.1-2 2z"/>
        <path d="M16.58 14.604l1.37-1.005.591.807-1.37 1.005zM19.114 12.743l5.079-3.727.591.806-5.079 3.727zM19.11 8.493l2.995-1.997.555.832-2.995 1.997z"/>
    </g>
</svg>
