<svg xmlns="http://www.w3.org/2000/svg" viewBox="0 0 600 400">
    <path d="M232.5 142.2c-40.4-.2-80.7 5.1-113.9 16-33.2 10.8-59.2 27.1-71.1 48.9 53.3-41.6 115.6-54.1 185-64.9zm134.2 0c40.4-.2 80.7 5.1 113.9 16 33.2 10.8 59.2 27.1 71.1 48.9-53.3-41.6-115.6-54.1-185-64.9zm-132.3 13c-28.7 4.1-51.6 9.3-69.2 16.9-17.6 7.6-29.7 17.5-36.9 31 23.2-21.9 72-38.7 106.1-47.9zm130.4 0c28.7 4.1 51.6 9.3 69.2 16.9 17.6 7.6 29.7 17.5 36.9 31-23.2-21.9-71.9-38.7-106.1-47.9zm-129.2-26.9c-35-1.6-68.2-3.5-98.8-.3-30.6 3.2-58.7 11.4-83.5 30.1 82.3-26.2 108.4-23.9 182.3-29.8zm128 0c35-1.6 68.2-3.5 98.8-.3 30.6 3.2 58.7 11.4 83.5 30.1-82.3-26.2-108.4-23.9-182.3-29.8zm-135.8-15.1c-38.6-1.3-72.6-.2-101.8-1.9-29.2-1.7-53.7-6.3-73.5-19.2C94 104 164.5 105 227.8 113.2zm143.6 0c38.6-1.3 72.6-.2 101.8-1.9 29.2-1.7 53.7-6.3 73.5-19.2-41.5 11.9-112 12.9-175.3 21.1zm-146-15c-41.5 5.4-74.3 2-98.8-7.2-24.4-9.3-40.6-24.3-48.8-41.9 32.3 28.3 76.4 50.9 147.6 49.1zm148.4 0c41.5 5.4 74.3 2 98.8-7.2s40.7-24.2 48.9-41.9C489.2 77.4 445 100 373.8 98.2zm-113.7 86.1c-1-1.6-1.4-3.7-1.4-6 0-3.7.2-8.3.7-13.8l.3-4.4.3-9c0-4-.4-12.8-1.2-26.5-.8-13.7-1.2-22.6-1.2-26.5 0-.3 0-1 .1-2s.1-2.5.1-4.5c.1-2.3.2-5 .2-8.3 0-8.3-.6-13.5-1.7-15.8-.7 0-2.2.2-4.4.5l-4.8.3c-1.5 0-2.8-.4-3.9-1.3-1.1-.8-1.7-2-1.7-3.3 0-1.4 1.4-2.5 4.1-3.6 4-1.4 10.7-2.3 20.2-2.9 3.9-.2 6.2-.3 7-.3 1.4 0 2.6.5 3.7 1.4 1.1.9 1.7 2 1.7 3.4s-.5 2.5-1.4 3.3c-1 .9-2.2 1.3-3.7 1.3l-3.1-.2c-.9-.1-1.9-.2-3.1-.2h-1.7c.8 7.7 1.2 14.7 1.2 20.9l-.2 10.9c-.1 3.3-.2 7-.2 11.1 0 5.4.2 12 .7 19.5.6 9.4.8 15.9.8 19.5 0 4.3.2 9.4.7 15.3.5 6 .7 11.1.7 15.3 0 5.6-1.6 8.3-4.9 8.3-1.6.1-2.9-.8-3.9-2.4zm66.9-47c.8 5 1.2 9.2 1.2 12.8 0 5.1-1.2 10.7-3.7 16.8-2.4 6.1-5.6 10.7-9.6 13.8-2.3 1.6-4.1 2.6-5.5 3.1-1.4.5-3.5.9-6.2 1.3-.7.1-1.5.2-2.5.2-1.8 0-3.3-.3-4.3-.9-1.1-.6-1.7-1.4-2-2.5 0-5.9.2-11.4.5-16.7.5-7.5.7-14.2.7-20.2 0-8.3-.3-17.2-.9-26.7-.2-3.6-.4-7.9-.6-12.8-.2-4.9-.3-8.7-.4-11.3l-.2-7.8c0-5.1.1-12.9.3-23.3.1-1.6.8-2.8 2-3.7 1.2-.9 2.6-1.2 4.3-1 1.6.2 2.9.9 3.8 2.1 1 1.2 1.3 2.5.9 4-1.1 4.8-1.7 11.3-1.7 19.7 0 2.9-.1 5.2-.2 6.6-.1 1.4-.2 3-.2 5s-.1 3.9-.2 5.9l-.2 10.5c1.1-.2 2-.3 2.7-.3 3.5 0 7 1.4 10.5 4.3s6.2 6.3 8.2 10.1c1.5 2.3 2.5 6 3.3 11zm-7.7 23.1c.8-3.3 1.3-7 1.3-11 0-7.3-2-14.7-5.9-22.4-2.9-5.7-6.8-8.2-11.6-7.5l.5 33.3c.2 2.3.3 6.5.3 12.8 0 2.6-.1 4.1-.2 4.6-.2 1.1-.3 1.9-.3 2.4 0 1.5.3 2.9 1 4.3.8-.2 2.1-.7 3.9-1.3 1.8-.6 3.3-1.3 4.6-2 1.2-.7 2.2-1.6 2.7-2.6 1.6-3.8 2.8-7.3 3.7-10.6zm28.3 20.6c0 1.2-.3 2.3-.8 3.1-.6.9-1.4 1.3-2.4 1.4-2 .1-3.5-.2-4.5-1s-1.5-2.3-1.6-4.6l-.2-7.1c0-3.1-.1-7.8-.3-14.1-.2-7.9-.5-13.9-.7-17.8l-.8-26.4c-.2-11-.5-19.3-.7-25l-.3-10.2v-18c.1-1.4.5-2.5 1.1-3.6.6-1 1.5-1.5 2.6-1.5.9 0 1.8.2 2.5.7 1.4.7 2.2 1.6 2.5 2.8.3 1.2.5 2.6.3 4.3v22.3c-.2 7-.5 16.9-.7 29.6.1.1.2 1.5.3 4.3.1 2.7.2 7.5.3 14.3.7 8.5 1.1 14.7 1.2 18.5.5 14.1 1 22.6 1.7 25.7.4 1 .5 1.8.5 2.3zM9 358.7c-1-.6-1.4-1.4-1.4-2.3 0-.3.1-.5.2-.5 4.4-17.8 8-32.9 10.9-45.2 2.3-10.1 3.4-16.8 3.4-20.1 0-2.6-.4-5.8-1.1-9.5-.7-3.7-2.4-11.3-4.8-22.6l-4.1-18.4c-.3-1.4-.5-2.4-.5-3.1 0-1.6.4-2.7 1.1-3.5.7-.7 1.7-1.1 2.8-1.1 1.7 0 2.9 1.4 3.7 4.1.9 3.1 2.2 9.1 3.9 18.2l.7 3.1 1.4 6.6 2.4 12.2 4.1-19.9 3.2-15.6c1.1-4.5 2-7.5 2.5-8.8.9-1.6 1.9-2.4 2.9-2.4 1.1 0 2.1.3 2.9 1 .8.7 1.2 1.6 1.2 2.7 0 2.9-1.9 11.8-5.8 26.5-2.4 9-4.1 16-5.3 21.2-1.1 5.2-1.7 8.9-1.7 11.1 0 1.1 1.1 7.1 3.2 18 2.2 10.9 4 20.1 5.6 27.5l1.2 4.8c1.1 4.3 1.7 7.4 1.7 9.2 0 2.9-1 4.4-3.1 4.4-2.8 0-4.5-1.4-4.9-4.1-.5-2.3-1.3-6.9-2.6-13.8l-1.4-7.8c-2.2-11.9-3.7-20-4.8-24.3-5.7 25.4-9.1 40.1-10.2 44.2-1.6 6-2.9 9-4.1 9-1.2.1-2.3-.2-3.2-.8zm84.3-1.2c-.9-.7-1.3-1.8-1.3-3.4v-22.3c-1.5-1-4.3-1.9-8.3-2.7-4.1-.8-7.9-1.3-11.6-1.5-1.2 2.4-2.2 5.3-2.7 8.7l-.7 3.4c-.1.8-.5 2.5-1 5.3-.6 2.7-1.2 5.1-1.9 7.1s-1.4 3.5-2 4.7c-4.3 0-6.8-1.1-7.5-3.4 1.2-1.8 2.7-7.1 4.3-16l5.6-31.1c2.5-14.7 4.8-27.3 6.9-37.7 2.1-10.4 4.3-19.2 6.7-26.2 2.6-7.8 5.1-11.7 7.5-11.7s4.2.5 5.4 1.4c0 4.5 1.1 15.5 3.2 32.8 2.3 17 3.4 28.6 3.4 34.8 0 6 .6 14.6 1.9 25.8 1.1 11.4 1.7 20.6 1.7 27.4 0 3.9-1.9 5.8-5.6 5.8-1.8-.1-3.2-.5-4-1.2zm-1.5-36c-.3-5-.9-11.2-1.7-18.5-2.6-25.6-3.9-41.3-3.9-47.1v-1.4c-1.1 1.1-2.7 6.3-4.7 15.4-2 9.1-3.8 18.9-5.5 29.3-1.7 10.4-2.6 17.3-2.7 20.7 4.8 1.4 9.8 2 15.1 2 .9.1 2.1-.1 3.4-.4zm34.1 36.3c-.7-1.1-1.1-2.4-1.1-4l.3-28.6c.3-13.8.5-24.5.5-32.1 0-26.4-1.5-46.6-4.4-60.7 1.7-2.6 3.9-3.9 6.5-3.9 4.2 0 8 .9 11.5 2.8s6.3 4.4 8.6 7.6c4.4 6.6 6.6 13.9 6.6 22.1 0 8.5-1.8 16.1-5.4 22.8-3.6 6.7-8.9 11.9-15.8 15.6l.3 17.2.3 9c.1 1.9.2 4.7.2 8.3.3 7.6.5 13.8.5 18.5 0 2.2-.5 3.9-1.4 5.1-.9 1.2-2.3 1.9-4.3 1.9-1.2 0-2.1-.5-2.9-1.6zm16.7-79.7c2.1-4.6 3.1-9.8 3.1-15.6v-.2c0-2.6-.3-5.9-.9-9.9-.3-1.4-1-2.7-1.9-4.1-.9-1.4-1.4-2.2-1.5-2.4-.8-1.1-2.9-2.9-6.3-5.3l-4.4-3.2c0 5.8.3 14.7 1 26.9l1 26.9c4.5-4.1 7.8-8.5 9.9-13.1zm31.5 80c-1.4-1.5-2-3.1-1.9-4.9.3-5.8.5-11.7.5-17.7 0-5.2-.1-13.1-.3-23.8-.1-4.9-.5-12.2-1.2-21.9-.1-1.9-.3-4.7-.5-8.4s-.4-6.9-.5-9.8c-.1-1.9-.2-4.8-.2-8.7l.2-17.3c0-1-.1-2.4-.3-4.3l-.2-3.9c0-1.8.5-3.2 1.4-4.3 1-1 2.2-1.5 3.8-1.5 3.3 0 5.2 1.5 5.6 4.6.5 3.4.7 6 .7 7.7 0 2-.2 4.1-.5 6.1-.6 4.2-.9 8-.9 11.4l.2 5.1c.5 10.4.7 20 .7 28.7v20.2c0 3.5.1 8.8.3 15.8l1 .2 2-6.6c3.4-11.4 6.6-21.9 9.7-31.3 1.6-4.4 3.3-11.3 5.1-20.6.8-4.1 1.5-7.4 2.2-9.9l8.5-30.6c.8-1.5 1.8-2.6 2.9-3.3 1.1-.7 2.3-1 3.4-.9 1.4.3 2.7 1.3 3.9 2.8 1.2 1.5 1.8 3 1.7 4.5-.1 4-.5 8.1-1 12.4-1 14.2-1.6 23.1-1.7 26.7-.5 15.2-.7 26.6-.7 34.2 0 3.6.3 9.3.9 17.1.6 7.8.9 12.9 1 15.4l.7 8.5c.1 2.4-.5 4.3-1.7 5.6-1.2 1.4-2.9 2-4.9 2-1.2 0-2.3-.4-3.2-1.3-.9-.9-1.4-2-1.5-3.5v-1.5l.2-34.2v-6.1c-.2-5.9-.5-15-.7-27.2v-18.2c-.1-.1-.4-.2-.8-.2-.7.1-1.7 2.7-3 7.7s-2.5 10.1-3.7 15.1c-1.1 5-1.9 8.2-2.2 9.6-1 4.9-1.6 7.7-1.9 8.3-3.2 10.8-5.7 19.7-7.6 26.9-1.9 7.2-3.5 14.5-4.8 21.8-.7 3.6-2.7 5.4-6.1 5.4-1.7.3-3.2-.5-4.6-1.9zm75.7-4.3c-.7-1.4-1.1-2.4-1.4-3.1-1.1-2.3-2-4.3-2.5-5.9-.6-1.7-.8-3.5-.8-5.3l.2-1.9c.1-1.2.5-2.3 1-3.2.6-.9 1.3-1.5 2.2-1.7 1.2-.2 2.5.1 3.8.9 1.3.9 2.1 1.9 2.5 3.1.5 1.1.9 2.7 1.4 4.8.7 3.1 1.6 6 2.7 8.8.7 1.5 1.8 2.2 3.4 2.2.5 0 1.1-.1 2-.3 4.1-1.7 6.9-4.3 8.3-7.7 2.7-6.6 4.1-12.9 4.1-19 0-2.4-.3-5.2-.9-8.3l-.3-3.3-.3-3.3c-.6-3.9-1.9-6.9-3.9-9.2-2-2.3-5-3.9-8.8-4.9-.3-.1-1.2-.3-2.7-.6-1.5-.3-2.7-.9-3.7-1.7-1-.9-1.4-1.9-1.4-3.1-.2-3.2 2.3-5.3 7.7-6.5 2.9-.8 5.3-2.5 7.1-5.3 4.3-4 6.5-9.7 6.5-17.3 0-4.5-.7-9.2-2.2-13.9-.7-2.6-2.2-4.6-4.6-6-2.4-1.4-4.9-2.1-7.7-2.1-3.9 0-7.1 1.6-9.7 4.9-.5.6-1.2 1.8-2.4 3.6-1.9 3.2-3.3 5-4.1 5.6-.9.9-1.8 1.4-2.7 1.4-1.4 0-2.4-.4-3.1-1.1-.7-.7-1.2-1.6-1.3-2.5-.1-.5-.2-1.1-.2-2 0-3.7 1.1-7.1 3.3-10.2s5-5.5 8.5-7.3c3.5-1.8 6.9-2.7 10.3-2.7 4 0 8.1 1.1 12.4 3.2 6 2.9 9.7 7.6 11 14.1.8 3.5 1.2 7.1 1.2 10.7 0 5-.7 10.1-2.2 15.3-1.4 5.2-4.3 10.2-8.8 15l-3.4 1.5c3.7.8 7.1 3.5 10 8.2 2.9 4.6 4.4 9.3 4.4 13.9 0 1.9.2 3.9.5 5.8.2 2 .3 3.5.3 4.3.1 1.1.2 2.8.2 4.9 0 6.5-.9 12.4-2.7 17.8-3.4 10.8-9.9 16.2-19.4 16.2-1.6 0-3.3-.2-5.3-.5-4-.6-6.8-2.7-8.5-6.3zm98.1 7.5c-.7-1.1-1-2.8-1-4.9l-.2-25.2c-.1-2.2-.2-5.7-.2-10.7-.2-10.5-.3-22.4-.3-35.7v-8.7c-1 5.4-2.8 13.1-5.3 23-2.5 10.2-4.3 18.6-5.3 25.2v1l-.5 3.2c-.2 2.5-.8 5-1.7 7.6-1.1 2.7-2.9 4.1-5.3 4.1-4.1 0-6.1-5.3-6.1-16 0-5.9-.6-12.2-1.8-19-1.2-6.7-3.1-15-5.7-24.9l-5.1-19-.3 20.4c0 6.1.3 17.8.9 35l.3 11.6.3 23.3c0 2.4-.8 4.5-2.5 6.5-2.8 0-4.8-.9-5.9-2.6-1.1-1.8-1.6-4.3-1.6-7.7l.3-13.9c.3-6.1.5-10.7.5-13.8l-.3-32.8-.3-33c0-4.9.1-12.2.3-21.9l4.6-2.7c.9.1 1.8.8 2.7 2 .9 1.2 1.9 3.1 3.1 5.7 2.8 7 6.5 21.1 11.1 42.2.7 2.9 1.1 5.4 1.4 7.3 1.4 6.6 2.3 11.6 2.9 15l2.5 13.1 1.2-5.6 3.2-13.9c1.8-8.2 3.3-15.3 4.5-21.4s2.4-12.8 3.5-19.9c1.2-8.5 2-15.6 2.4-21.3v-1c.2-1.5.9-2.6 2-3.5 1.1-.9 2.5-1.3 4.1-1.3 1 0 1.9.5 2.7 1.4.8.9 1.2 1.9 1.2 2.9 0 13.6.5 33.9 1.5 61 .6 13.3 1 26.2 1.2 38.9.2 5.8.3 13.1.3 21.9 0 2.6-.7 4.9-2 7s-2.9 3.1-4.6 3.1c-1.2-.3-2.1-.9-2.7-2zm60.4-3.8c-.9-.7-1.3-1.8-1.3-3.4v-22.3c-1.5-1-4.3-1.9-8.3-2.7-4.1-.8-7.9-1.3-11.6-1.5-1.2 2.4-2.2 5.3-2.7 8.7l-.7 3.4c-.1.8-.5 2.5-1 5.3-.6 2.7-1.2 5.1-1.9 7.1s-1.4 3.5-2 4.7c-4.3 0-6.8-1.1-7.5-3.4 1.2-1.8 2.7-7.1 4.3-16l5.6-31.1c2.5-14.7 4.8-27.3 6.9-37.7 2.1-10.4 4.3-19.2 6.7-26.2 2.6-7.8 5.1-11.7 7.5-11.7s4.2.5 5.4 1.4c0 4.5 1.1 15.5 3.2 32.8 2.3 17 3.4 28.6 3.4 34.8 0 6 .6 14.6 1.9 25.8 1.1 11.4 1.7 20.6 1.7 27.4 0 3.9-1.9 5.8-5.6 5.8-1.8-.1-3.2-.5-4-1.2zm-1.5-36c-.3-5-.9-11.2-1.7-18.5-2.6-25.6-3.9-41.3-3.9-47.1v-1.4c-1.1 1.1-2.7 6.3-4.7 15.4-2 9.1-3.8 18.9-5.5 29.3-1.7 10.4-2.6 17.3-2.7 20.7 4.8 1.4 9.8 2 15.1 2 .9.1 2.1-.1 3.4-.4zm40.1 35.8c-1-1.6-1.4-3.7-1.4-6 0-3.7.2-8.3.7-13.8l.3-4.4.3-9c0-4-.4-12.8-1.2-26.5-.8-13.7-1.2-22.6-1.2-26.5 0-.3 0-1 .1-2s.1-2.5.1-4.5c.1-2.3.2-5 .2-8.3 0-8.3-.6-13.5-1.7-15.8-.7 0-2.2.2-4.4.5l-4.8.3c-1.5 0-2.8-.4-3.9-1.3-1.1-.8-1.7-2-1.7-3.3 0-1.4 1.4-2.6 4.1-3.6 4-1.4 10.7-2.3 20.2-2.9 3.9-.2 6.2-.3 7-.3 1.4 0 2.6.5 3.7 1.4 1.1.9 1.7 2 1.7 3.4s-.5 2.5-1.4 3.3c-1 .9-2.2 1.3-3.7 1.3l-3.1-.2c-.9-.1-1.9-.2-3.1-.2H452c.8 7.7 1.2 14.7 1.2 20.9l-.2 10.9c-.1 3.3-.2 7-.2 11 0 5.4.2 12 .7 19.5.6 9.4.8 15.9.8 19.5 0 4.3.2 9.4.7 15.3.5 6 .7 11.1.7 15.3 0 5.6-1.6 8.3-4.9 8.3-1.6.2-3-.7-3.9-2.3zm37.8.8c-1.4-1.5-2-3.1-1.9-4.9.3-5.8.5-11.7.5-17.7 0-5.2-.1-13.1-.3-23.8-.1-4.9-.5-12.2-1.2-21.9-.1-1.9-.3-4.7-.5-8.4s-.4-6.9-.5-9.8c-.1-1.9-.2-4.8-.2-8.7l.2-17.3c0-1-.1-2.4-.3-4.3l-.2-3.9c0-1.8.5-3.2 1.4-4.3 1-1 2.2-1.5 3.8-1.5 3.3 0 5.2 1.5 5.6 4.6.5 3.4.7 6 .7 7.7 0 2-.2 4.1-.5 6.1-.6 4.2-.9 8-.9 11.4l.2 5.1c.5 10.4.7 20 .7 28.7v20.2c0 3.5.1 8.8.3 15.8l1 .2 2-6.6c3.4-11.4 6.6-21.9 9.7-31.3 1.6-4.4 3.3-11.3 5.1-20.6.8-4.1 1.5-7.4 2.2-9.9l8.5-30.6c.8-1.5 1.8-2.6 2.9-3.3 1.1-.7 2.3-1 3.4-.9 1.4.3 2.7 1.3 3.9 2.8 1.2 1.5 1.8 3 1.7 4.5-.1 4-.5 8.1-1 12.4-1 14.2-1.6 23.1-1.7 26.7-.5 15.2-.7 26.6-.7 34.2 0 3.6.3 9.3.9 17.1.6 7.8.9 12.9 1 15.4l.7 8.5c.1 2.4-.5 4.3-1.7 5.6-1.2 1.4-2.9 2-4.9 2-1.2 0-2.3-.4-3.2-1.3-.9-.9-1.4-2-1.5-3.5v-1.5l.2-34.2v-6.1c-.2-5.9-.5-15-.7-27.2v-18.2c-.1-.1-.4-.2-.8-.2-.7.1-1.7 2.7-3 7.7s-2.5 10.1-3.7 15.1c-1.1 5-1.9 8.2-2.2 9.6-1 4.9-1.6 7.7-1.9 8.3-3.2 10.8-5.7 19.7-7.7 26.9-1.9 7.2-3.5 14.5-4.8 21.8-.7 3.6-2.7 5.4-6.1 5.4-1.6.3-3.1-.5-4.5-1.9zm92.7 0c-2.1-2.3-3.3-5-3.5-8.3-.7-4.8-1.1-12.4-1.4-23l-.3-10.5c0-2.9-.9-5.8-2.7-8.6-1.8-2.8-4.1-4.4-7-4.8.8 23.6 1.2 41 1.2 52.4 0 3.2-1.1 4.8-3.4 4.8-.9 0-1.8-.2-2.7-.7-2.2-1-3.1-2.7-2.7-4.9.9-6.7 1.4-13.3 1.4-19.9 0-4.8-.2-9.7-.5-15-.1-2.5-.2-6.3-.2-11.4-.1-1.6-.2-4.1-.2-7.5-.5-18.6-1-32.6-1.5-42-.3-5.7-1.2-12.9-2.5-21.8-.1-.5-.2-1.1-.2-2 0-3.5 1.5-5.6 4.4-6.1 1.7-.3 3.1.1 4.2 1.4 1.1 1.3 1.7 3 1.8 5 .1 1.5.2 3.2.3 5.2.1 2 .2 3.5.2 4.7l.2 5.6c.2 6.6.3 11.4.3 14.5v30.3c1-2.4 2.3-6.1 3.7-11 1.5-5 2.6-9.2 3.4-12.8.3-1.8.7-4 1.1-6.6.4-2.6.7-4.6.9-6 .8-7.3 1.8-13.1 3.1-17.5 1.5-5.2 4.3-9 8.3-11.4 1.7-1 3.1-1.5 4.3-1.5.8 0 1.9.3 3.2.8 1.8.8 2.7 2.5 2.7 5.1 0 1.9-1.2 3.2-3.6 3.7-4.5.8-7.5 3.8-8.8 9-.8 3.2-1.5 6.6-2.2 10.4-.8 5-1.5 8.2-2 9.7-1.9 5.9-3 10.7-3.2 14.3-.3 3.1-.8 5.8-1.5 8.1s-1.8 4.3-3.2 5.9c2.8.5 5.3 2.4 7.3 6 2 3.5 3.3 8.1 3.9 13.8.5 4 1.2 12.6 2.2 25.8l.3 3.7c.3 2.8 1.7 4.4 4.1 4.8 1.8.6 3.1 1.3 3.9 2.1.8.8 1.2 2 1.2 3.5 0 1.8-.6 3.3-1.9 4.5-1.2 1.2-2.8 1.8-4.8 1.8-3-.2-5.5-1.4-7.6-3.6z" fill="#fff"/>
</svg>
