<?xml version="1.0" encoding="UTF-8" standalone="no"?>
<!DOCTYPE svg PUBLIC "-//W3C//DTD SVG 1.1//EN" "http://www.w3.org/Graphics/SVG/1.1/DTD/svg11.dtd">
<svg width="100%" height="100%" viewBox="0 0 600 400" version="1.1" xmlns="http://www.w3.org/2000/svg" xmlns:xlink="http://www.w3.org/1999/xlink" xml:space="preserve" xmlns:serif="http://www.serif.com/" style="fill-rule:evenodd;clip-rule:evenodd;stroke-linejoin:round;stroke-miterlimit:2;">
    <g transform="matrix(1.66409,0,0,1.66238,-1018.45,-250.123)">
        <g transform="matrix(1,0,0,1,616.559,179.97)">
            <path d="M154.43,89.7C153.43,89.7 152.63,89.233 152.03,88.3C151.496,87.3 151.23,86.1 151.23,84.7C151.23,82.5 151.363,79.8 151.63,76.6L151.83,74L152.03,68.7C152.03,66.367 151.796,61.167 151.33,53.1C150.863,45.033 150.63,39.833 150.63,37.5L150.63,36.4C150.696,35.8 150.73,34.9 150.73,33.7C150.796,32.367 150.83,30.733 150.83,28.8C150.83,23.933 150.496,20.833 149.83,19.5C149.43,19.5 148.563,19.6 147.23,19.8L144.43,20C143.563,20 142.796,19.767 142.13,19.3C141.463,18.767 141.13,18.1 141.13,17.3C141.13,16.5 141.93,15.8 143.53,15.2C145.863,14.4 149.83,13.833 155.43,13.5C157.696,13.367 159.063,13.3 159.53,13.3C160.33,13.3 161.063,13.567 161.73,14.1C162.396,14.633 162.73,15.3 162.73,16.1C162.73,16.9 162.43,17.567 161.83,18.1C161.296,18.567 160.596,18.8 159.73,18.8L157.93,18.7C157.396,18.633 156.796,18.6 156.13,18.6L155.13,18.6C155.596,23.133 155.83,27.233 155.83,30.9L155.73,37.3C155.663,39.233 155.63,41.4 155.63,43.8C155.63,47 155.763,50.833 156.03,55.3C156.363,60.833 156.53,64.667 156.53,66.8C156.53,69.333 156.663,72.333 156.93,75.8C157.196,79.333 157.33,82.333 157.33,84.8C157.33,88.067 156.363,89.7 154.43,89.7ZM203.302,84.9C203.435,85.567 203.502,86.033 203.502,86.3C203.502,87.033 203.335,87.667 203.002,88.2C202.668,88.667 202.202,88.933 201.602,89C200.402,89.067 199.502,88.867 198.902,88.4C198.368,87.933 198.068,87.033 198.002,85.7L197.902,81.5C197.902,79.7 197.835,76.933 197.702,73.2C197.568,68.533 197.435,65.033 197.302,62.7L196.802,47.2C196.668,40.733 196.535,35.833 196.402,32.5L196.202,26.5L196.202,15.9C196.268,15.1 196.468,14.4 196.802,13.8C197.202,13.2 197.735,12.9 198.402,12.9C198.935,12.9 199.435,13.033 199.902,13.3C200.702,13.7 201.202,14.267 201.402,15C201.602,15.667 201.668,16.5 201.602,17.5L201.602,30.6C201.468,34.733 201.335,40.533 201.202,48C201.268,48.067 201.335,48.9 201.402,50.5C201.468,52.1 201.535,54.9 201.602,58.9C202.002,63.9 202.235,67.533 202.302,69.8C202.568,78.067 202.902,83.1 203.302,84.9ZM189.602,54.1C190.335,55.5 190.935,57.667 191.402,60.6C191.868,63.533 192.102,66.033 192.102,68.1C192.102,71.1 191.368,74.4 189.902,78C188.502,81.6 186.635,84.3 184.302,86.1C182.968,87.033 181.868,87.667 181.002,88C180.202,88.267 179.002,88.5 177.402,88.7C177.002,88.767 176.502,88.8 175.902,88.8C174.835,88.8 173.968,88.633 173.302,88.3C172.702,87.9 172.335,87.4 172.202,86.8C172.202,83.333 172.302,80.067 172.502,77C172.768,72.6 172.902,68.633 172.902,65.1C172.902,60.233 172.735,55 172.402,49.4C172.268,47.267 172.135,44.767 172.002,41.9C171.935,38.967 171.868,36.733 171.802,35.2L171.702,30.6C171.702,27.6 171.768,23.033 171.902,16.9C171.968,15.967 172.335,15.233 173.002,14.7C173.735,14.167 174.602,13.967 175.602,14.1C176.535,14.233 177.268,14.667 177.802,15.4C178.402,16.067 178.602,16.833 178.402,17.7C177.735,20.5 177.402,24.367 177.402,29.3C177.402,31.033 177.368,32.333 177.302,33.2C177.235,34 177.202,35 177.202,36.2C177.202,37.333 177.168,38.467 177.102,39.6L177.002,45.8C177.668,45.667 178.202,45.6 178.602,45.6C180.668,45.6 182.702,46.467 184.702,48.2C186.768,49.867 188.402,51.833 189.602,54.1ZM184.702,80.3C185.635,78.167 186.335,76.133 186.802,74.2C187.335,72.267 187.602,70.1 187.602,67.7C187.602,63.433 186.435,59.033 184.102,54.5C182.368,51.167 180.102,49.7 177.302,50.1L177.602,69.7C177.735,71.033 177.802,73.533 177.802,77.2C177.802,78.733 177.768,79.633 177.702,79.9C177.568,80.567 177.502,81.033 177.502,81.3C177.502,82.167 177.702,83 178.102,83.8C178.568,83.667 179.335,83.433 180.402,83.1C181.468,82.7 182.368,82.3 183.102,81.9C183.835,81.433 184.368,80.9 184.702,80.3ZM6.309,179.6C5.576,179.6 4.909,179.4 4.309,179C3.776,178.667 3.509,178.233 3.509,177.7C3.509,177.5 3.543,177.4 3.609,177.4C6.209,166.933 8.343,158.067 10.009,150.8C11.343,144.867 12.009,140.933 12.009,139C12.009,137.467 11.776,135.6 11.309,133.4C10.909,131.2 9.976,126.767 8.509,120.1L6.109,109.3C5.909,108.5 5.809,107.9 5.809,107.5C5.809,106.567 6.009,105.9 6.409,105.5C6.876,105.033 7.443,104.8 8.109,104.8C9.109,104.8 9.843,105.6 10.309,107.2C10.843,109 11.609,112.567 12.609,117.9L13.009,119.7L13.809,123.6L15.209,130.8L17.609,119.1L19.509,109.9C20.176,107.233 20.676,105.5 21.009,104.7C21.543,103.767 22.109,103.3 22.709,103.3C23.376,103.3 23.943,103.5 24.409,103.9C24.876,104.3 25.109,104.833 25.109,105.5C25.109,107.233 23.976,112.433 21.709,121.1C20.309,126.367 19.276,130.533 18.609,133.6C17.943,136.6 17.609,138.767 17.609,140.1C17.609,140.767 18.243,144.3 19.509,150.7C20.776,157.1 21.876,162.5 22.809,166.9L23.509,169.7C24.176,172.233 24.509,174.033 24.509,175.1C24.509,176.833 23.909,177.7 22.709,177.7C21.043,177.7 20.076,176.9 19.809,175.3C19.543,173.967 19.043,171.267 18.309,167.2L17.509,162.6C16.243,155.6 15.309,150.833 14.709,148.3C11.376,163.233 9.376,171.9 8.709,174.3C7.776,177.833 6.976,179.6 6.309,179.6ZM56.281,179C55.214,179 54.414,178.8 53.881,178.4C53.414,178 53.181,177.333 53.181,176.4L53.181,163.3C52.314,162.7 50.681,162.167 48.281,161.7C45.881,161.233 43.614,160.933 41.481,160.8C40.747,162.2 40.214,163.9 39.881,165.9L39.481,167.9C39.414,168.367 39.214,169.4 38.881,171C38.547,172.6 38.181,174 37.781,175.2C37.381,176.333 36.981,177.233 36.581,177.9C34.047,177.9 32.581,177.233 32.181,175.9C32.914,174.833 33.747,171.7 34.681,166.5L37.981,148.2C39.447,139.533 40.781,132.133 41.981,126C43.247,119.867 44.581,114.733 45.981,110.6C47.514,106 48.981,103.7 50.381,103.7C51.781,103.7 52.847,103.967 53.581,104.5C53.581,107.167 54.214,113.6 55.481,123.8C56.814,133.8 57.481,140.633 57.481,144.3C57.481,147.833 57.847,152.9 58.581,159.5C59.247,166.233 59.581,171.6 59.581,175.6C59.581,177.867 58.481,179 56.281,179ZM51.081,157.5C51.614,157.5 52.281,157.4 53.081,157.2C52.881,154.267 52.547,150.633 52.081,146.3C50.547,131.233 49.781,122 49.781,118.6L49.781,117.8C49.114,118.467 48.181,121.5 46.981,126.9C45.847,132.233 44.781,137.967 43.781,144.1C42.781,150.233 42.247,154.3 42.181,156.3C44.981,157.1 47.947,157.5 51.081,157.5ZM74.841,179.5C74.108,179.5 73.508,179.2 73.041,178.6C72.641,177.933 72.441,177.133 72.441,176.2L72.641,159.4C72.841,151.267 72.941,144.967 72.941,140.5C72.941,124.967 72.075,113.067 70.341,104.8C71.341,103.267 72.608,102.5 74.141,102.5C76.608,102.5 78.841,103.067 80.841,104.2C82.908,105.267 84.608,106.733 85.941,108.6C88.541,112.467 89.841,116.8 89.841,121.6C89.841,126.6 88.775,131.067 86.641,135C84.508,138.933 81.408,142 77.341,144.2L77.541,154.3L77.741,159.6C77.808,160.733 77.841,162.367 77.841,164.5C78.041,168.967 78.141,172.6 78.141,175.4C78.141,176.667 77.875,177.667 77.341,178.4C76.808,179.133 75.975,179.5 74.841,179.5ZM77.141,139.4C79.741,136.933 81.641,134.367 82.841,131.7C84.108,128.967 84.741,125.9 84.741,122.5L84.741,122.4C84.741,120.867 84.575,118.933 84.241,116.6C84.041,115.8 83.675,115 83.141,114.2C82.608,113.4 82.308,112.933 82.241,112.8C81.775,112.133 80.541,111.1 78.541,109.7L75.941,107.8C75.941,111.2 76.141,116.467 76.541,123.6L77.141,139.4ZM104.15,180C103.15,180 102.25,179.567 101.45,178.7C100.65,177.833 100.283,176.867 100.35,175.8C100.55,172.4 100.65,168.933 100.65,165.4C100.65,162.333 100.583,157.667 100.45,151.4C100.383,148.533 100.15,144.233 99.75,138.5C99.683,137.367 99.583,135.733 99.45,133.6C99.317,131.4 99.217,129.467 99.15,127.8C99.083,126.667 99.05,124.967 99.05,122.7L99.15,112.5C99.15,111.9 99.083,111.067 98.95,110L98.85,107.7C98.85,106.633 99.117,105.8 99.65,105.2C100.25,104.6 101.017,104.3 101.95,104.3C103.883,104.3 104.983,105.2 105.25,107C105.517,109 105.65,110.5 105.65,111.5C105.65,112.7 105.55,113.9 105.35,115.1C105.017,117.567 104.85,119.8 104.85,121.8L104.95,124.8C105.217,130.933 105.35,136.567 105.35,141.7L105.35,153.6C105.35,155.667 105.417,158.767 105.55,162.9L106.15,163L107.35,159.1C109.35,152.367 111.25,146.233 113.05,140.7C113.983,138.1 114.983,134.067 116.05,128.6C116.517,126.2 116.95,124.267 117.35,122.8L122.35,104.8C122.817,103.933 123.383,103.3 124.05,102.9C124.717,102.433 125.383,102.233 126.05,102.3C126.85,102.5 127.617,103.067 128.35,104C129.083,104.867 129.417,105.733 129.35,106.6C129.283,108.933 129.083,111.367 128.75,113.9C128.15,122.233 127.817,127.467 127.75,129.6C127.483,138.533 127.35,145.233 127.35,149.7C127.35,151.833 127.517,155.2 127.85,159.8C128.183,164.333 128.383,167.333 128.45,168.8L128.85,173.8C128.917,175.2 128.583,176.3 127.85,177.1C127.117,177.9 126.15,178.3 124.95,178.3C124.217,178.3 123.583,178.067 123.05,177.6C122.517,177.067 122.217,176.367 122.15,175.5L122.15,174.6L122.25,154.5L122.25,150.9C122.117,147.433 121.983,142.1 121.85,134.9L121.85,124.2C121.783,124.133 121.617,124.1 121.35,124.1C120.95,124.167 120.35,125.7 119.55,128.7C118.817,131.633 118.117,134.6 117.45,137.6C116.783,140.533 116.35,142.4 116.15,143.2C115.55,146.067 115.183,147.7 115.05,148.1C113.183,154.433 111.683,159.733 110.55,164C109.417,168.2 108.483,172.467 107.75,176.8C107.35,178.933 106.15,180 104.15,180ZM150.949,179.8C148.616,179.533 146.949,178.333 145.949,176.2C145.549,175.4 145.283,174.8 145.149,174.4C144.483,173.067 143.983,171.9 143.649,170.9C143.316,169.9 143.149,168.867 143.149,167.8L143.249,166.7C143.316,165.967 143.516,165.333 143.849,164.8C144.183,164.267 144.616,163.933 145.149,163.8C145.883,163.667 146.616,163.867 147.349,164.4C148.149,164.867 148.649,165.467 148.849,166.2C149.116,166.867 149.383,167.8 149.649,169C150.049,170.8 150.583,172.533 151.249,174.2C151.649,175.067 152.316,175.5 153.249,175.5C153.516,175.5 153.916,175.433 154.449,175.3C156.849,174.3 158.483,172.8 159.349,170.8C160.949,166.933 161.749,163.2 161.749,159.6C161.749,158.2 161.583,156.567 161.249,154.7C161.183,154.033 161.116,153.4 161.049,152.8C160.983,152.133 160.916,151.467 160.849,150.8C160.516,148.533 159.749,146.733 158.549,145.4C157.349,144.067 155.616,143.1 153.349,142.5C153.149,142.433 152.616,142.333 151.749,142.2C150.883,142 150.149,141.667 149.549,141.2C149.016,140.667 148.749,140.033 148.749,139.3C148.616,137.433 150.116,136.167 153.249,135.5C154.983,135.033 156.383,134 157.449,132.4C159.983,130.067 161.249,126.667 161.249,122.2C161.249,119.533 160.816,116.8 159.949,114C159.549,112.467 158.649,111.3 157.249,110.5C155.849,109.633 154.349,109.2 152.749,109.2C150.483,109.2 148.583,110.167 147.049,112.1C146.783,112.433 146.316,113.133 145.649,114.2C144.516,116.067 143.716,117.167 143.249,117.5C142.716,118.033 142.183,118.3 141.649,118.3C140.849,118.3 140.216,118.1 139.749,117.7C139.349,117.233 139.116,116.733 139.049,116.2C138.983,115.933 138.949,115.533 138.949,115C138.949,112.8 139.583,110.8 140.849,109C142.183,107.2 143.849,105.767 145.849,104.7C147.916,103.633 149.949,103.1 151.949,103.1C154.283,103.1 156.716,103.733 159.249,105C162.783,106.733 164.949,109.5 165.749,113.3C166.216,115.367 166.449,117.467 166.449,119.6C166.449,122.533 166.016,125.533 165.149,128.6C164.349,131.667 162.616,134.6 159.949,137.4L157.949,138.3C160.149,138.767 162.116,140.367 163.849,143.1C165.583,145.833 166.449,148.567 166.449,151.3C166.449,152.433 166.549,153.567 166.749,154.7C166.883,155.9 166.949,156.733 166.949,157.2C167.016,157.867 167.049,158.833 167.049,160.1C167.049,163.9 166.516,167.4 165.449,170.6C163.449,176.933 159.649,180.1 154.049,180.1C153.116,180.1 152.083,180 150.949,179.8ZM205.222,181.6C204.555,181.6 204.022,181.267 203.622,180.6C203.222,179.933 203.022,178.967 203.022,177.7L202.922,162.9C202.855,161.633 202.822,159.533 202.822,156.6C202.689,150.4 202.622,143.4 202.622,135.6L202.622,130.5C202.022,133.7 200.989,138.2 199.522,144C198.055,150 197.022,154.933 196.422,158.8L196.422,159.4L196.122,161.3C195.989,162.767 195.655,164.267 195.122,165.8C194.455,167.4 193.422,168.2 192.022,168.2C189.622,168.2 188.422,165.067 188.422,158.8C188.422,155.333 188.055,151.633 187.322,147.7C186.655,143.7 185.555,138.8 184.022,133L181.022,121.8L180.822,133.8C180.822,137.4 180.989,144.267 181.322,154.4L181.522,161.2L181.722,174.9C181.722,176.3 181.222,177.567 180.222,178.7C178.555,178.7 177.389,178.2 176.722,177.2C176.122,176.133 175.822,174.6 175.822,172.6L176.022,164.4C176.222,160.8 176.322,158.1 176.322,156.3L176.122,137L175.922,117.6C175.922,114.733 175.989,110.433 176.122,104.7L178.822,103.1C179.355,103.167 179.889,103.567 180.422,104.3C180.955,104.967 181.555,106.067 182.222,107.6C183.889,111.733 186.055,120 188.722,132.4C189.122,134.133 189.389,135.567 189.522,136.7C190.322,140.567 190.889,143.5 191.222,145.5L192.722,153.2L193.422,149.9L195.322,141.7C196.389,136.9 197.255,132.7 197.922,129.1C198.655,125.5 199.355,121.6 200.022,117.4C200.755,112.4 201.222,108.233 201.422,104.9L201.422,104.3C201.555,103.433 201.955,102.767 202.622,102.3C203.289,101.767 204.089,101.5 205.022,101.5C205.622,101.5 206.155,101.767 206.622,102.3C207.089,102.833 207.322,103.4 207.322,104C207.322,112 207.622,123.967 208.222,139.9C208.555,147.7 208.789,155.333 208.922,162.8C209.055,166.2 209.122,170.5 209.122,175.7C209.122,177.233 208.722,178.6 207.922,179.8C207.122,181 206.222,181.6 205.222,181.6ZM241.534,179C240.468,179 239.668,178.8 239.134,178.4C238.668,178 238.434,177.333 238.434,176.4L238.434,163.3C237.568,162.7 235.934,162.167 233.534,161.7C231.134,161.233 228.868,160.933 226.734,160.8C226.001,162.2 225.468,163.9 225.134,165.9L224.734,167.9C224.668,168.367 224.468,169.4 224.134,171C223.801,172.6 223.434,174 223.034,175.2C222.634,176.333 222.234,177.233 221.834,177.9C219.301,177.9 217.834,177.233 217.434,175.9C218.168,174.833 219.001,171.7 219.934,166.5L223.234,148.2C224.701,139.533 226.034,132.133 227.234,126C228.501,119.867 229.834,114.733 231.234,110.6C232.768,106 234.234,103.7 235.634,103.7C237.034,103.7 238.101,103.967 238.834,104.5C238.834,107.167 239.468,113.6 240.734,123.8C242.068,133.8 242.734,140.633 242.734,144.3C242.734,147.833 243.101,152.9 243.834,159.5C244.501,166.233 244.834,171.6 244.834,175.6C244.834,177.867 243.734,179 241.534,179ZM236.334,157.5C236.868,157.5 237.534,157.4 238.334,157.2C238.134,154.267 237.801,150.633 237.334,146.3C235.801,131.233 235.034,122 235.034,118.6L235.034,117.8C234.368,118.467 233.434,121.5 232.234,126.9C231.101,132.233 230.034,137.967 229.034,144.1C228.034,150.233 227.501,154.3 227.434,156.3C230.234,157.1 233.201,157.5 236.334,157.5ZM264.195,179.7C263.195,179.7 262.395,179.233 261.795,178.3C261.262,177.3 260.995,176.1 260.995,174.7C260.995,172.5 261.129,169.8 261.395,166.6L261.595,164L261.795,158.7C261.795,156.367 261.562,151.167 261.095,143.1C260.629,135.033 260.395,129.833 260.395,127.5L260.395,126.4C260.462,125.8 260.495,124.9 260.495,123.7C260.562,122.367 260.595,120.733 260.595,118.8C260.595,113.933 260.262,110.833 259.595,109.5C259.195,109.5 258.329,109.6 256.995,109.8L254.195,110C253.329,110 252.562,109.767 251.895,109.3C251.229,108.767 250.895,108.1 250.895,107.3C250.895,106.5 251.695,105.8 253.295,105.2C255.629,104.4 259.595,103.833 265.195,103.5C267.462,103.367 268.829,103.3 269.295,103.3C270.095,103.3 270.829,103.567 271.495,104.1C272.162,104.633 272.495,105.3 272.495,106.1C272.495,106.9 272.195,107.567 271.595,108.1C271.062,108.567 270.362,108.8 269.495,108.8L267.695,108.7C267.162,108.633 266.562,108.6 265.895,108.6L264.895,108.6C265.362,113.133 265.595,117.233 265.595,120.9L265.495,127.3C265.429,129.233 265.395,131.4 265.395,133.8C265.395,137 265.529,140.833 265.795,145.3C266.129,150.833 266.295,154.667 266.295,156.8C266.295,159.333 266.429,162.333 266.695,165.8C266.962,169.333 267.095,172.333 267.095,174.8C267.095,178.067 266.129,179.7 264.195,179.7ZM286.767,180C285.767,180 284.867,179.567 284.067,178.7C283.267,177.833 282.901,176.867 282.967,175.8C283.167,172.4 283.267,168.933 283.267,165.4C283.267,162.333 283.201,157.667 283.067,151.4C283.001,148.533 282.767,144.233 282.367,138.5C282.301,137.367 282.201,135.733 282.067,133.6C281.934,131.4 281.834,129.467 281.767,127.8C281.701,126.667 281.667,124.967 281.667,122.7L281.767,112.5C281.767,111.9 281.701,111.067 281.567,110L281.467,107.7C281.467,106.633 281.734,105.8 282.267,105.2C282.867,104.6 283.634,104.3 284.567,104.3C286.501,104.3 287.601,105.2 287.867,107C288.134,109 288.267,110.5 288.267,111.5C288.267,112.7 288.167,113.9 287.967,115.1C287.634,117.567 287.467,119.8 287.467,121.8L287.567,124.8C287.834,130.933 287.967,136.567 287.967,141.7L287.967,153.6C287.967,155.667 288.034,158.767 288.167,162.9L288.767,163L289.967,159.1C291.967,152.367 293.867,146.233 295.667,140.7C296.601,138.1 297.601,134.067 298.667,128.6C299.134,126.2 299.567,124.267 299.967,122.8L304.967,104.8C305.434,103.933 306.001,103.3 306.667,102.9C307.334,102.433 308.001,102.233 308.667,102.3C309.467,102.5 310.234,103.067 310.967,104C311.701,104.867 312.034,105.733 311.967,106.6C311.901,108.933 311.701,111.367 311.367,113.9C310.767,122.233 310.434,127.467 310.367,129.6C310.101,138.533 309.967,145.233 309.967,149.7C309.967,151.833 310.134,155.2 310.467,159.8C310.801,164.333 311.001,167.333 311.067,168.8L311.467,173.8C311.534,175.2 311.201,176.3 310.467,177.1C309.734,177.9 308.767,178.3 307.567,178.3C306.834,178.3 306.201,178.067 305.667,177.6C305.134,177.067 304.834,176.367 304.767,175.5L304.767,174.6L304.867,154.5L304.867,150.9C304.734,147.433 304.601,142.1 304.467,134.9L304.467,124.2C304.401,124.133 304.234,124.1 303.967,124.1C303.567,124.167 302.967,125.7 302.167,128.7C301.434,131.633 300.734,134.6 300.067,137.6C299.401,140.533 298.967,142.4 298.767,143.2C298.167,146.067 297.801,147.7 297.667,148.1C295.801,154.433 294.301,159.733 293.167,164C292.034,168.2 291.101,172.467 290.367,176.8C289.967,178.933 288.767,180 286.767,180ZM343.066,180.7C341.333,180.7 339.833,180.033 338.566,178.7C337.366,177.367 336.7,175.733 336.566,173.8C336.166,171 335.9,166.5 335.766,160.3L335.566,154.1C335.566,152.367 335.033,150.7 333.966,149.1C332.9,147.433 331.533,146.467 329.866,146.2C330.333,160.067 330.566,170.333 330.566,177C330.566,178.867 329.9,179.8 328.566,179.8C328.033,179.8 327.5,179.667 326.966,179.4C325.7,178.8 325.166,177.833 325.366,176.5C325.9,172.567 326.166,168.667 326.166,164.8C326.166,162 326.066,159.067 325.866,156C325.8,154.533 325.766,152.3 325.766,149.3C325.7,148.367 325.666,146.9 325.666,144.9C325.4,133.967 325.1,125.733 324.766,120.2C324.566,116.867 324.066,112.6 323.266,107.4C323.2,107.133 323.166,106.733 323.166,106.2C323.166,104.133 324.033,102.933 325.766,102.6C326.766,102.4 327.566,102.7 328.166,103.5C328.833,104.233 329.2,105.2 329.266,106.4C329.333,107.267 329.4,108.3 329.466,109.5C329.533,110.633 329.566,111.533 329.566,112.2L329.666,115.5C329.8,119.367 329.866,122.2 329.866,124L329.866,141.8C330.466,140.4 331.2,138.233 332.066,135.3C332.933,132.367 333.6,129.867 334.066,127.8C334.266,126.733 334.466,125.433 334.666,123.9C334.933,122.367 335.133,121.2 335.266,120.4C335.733,116.133 336.333,112.7 337.066,110.1C337.933,107.033 339.566,104.8 341.966,103.4C342.966,102.8 343.8,102.5 344.466,102.5C344.933,102.5 345.566,102.667 346.366,103C347.433,103.467 347.966,104.467 347.966,106C347.966,107.133 347.266,107.867 345.866,108.2C343.2,108.667 341.466,110.433 340.666,113.5C340.2,115.367 339.766,117.4 339.366,119.6C338.9,122.533 338.5,124.433 338.166,125.3C337.033,128.767 336.4,131.567 336.266,133.7C336.066,135.5 335.766,137.1 335.366,138.5C334.966,139.833 334.333,140.967 333.466,141.9C335.133,142.167 336.566,143.333 337.766,145.4C338.966,147.467 339.733,150.167 340.066,153.5C340.333,155.833 340.766,160.9 341.366,168.7L341.566,170.9C341.766,172.567 342.566,173.5 343.966,173.7C345.033,174.033 345.8,174.467 346.266,175C346.733,175.467 346.966,176.133 346.966,177C346.966,178.067 346.6,178.933 345.866,179.6C345.133,180.333 344.2,180.7 343.066,180.7Z" style="fill:white;fill-rule:nonzero;"/>
        </g>
        <g transform="matrix(1,0,0,1,616.559,179.97)">
            <path d="M135.169,56.005C110.867,55.888 86.656,59.099 66.73,65.607C46.804,72.116 31.163,81.924 24,95C56.052,70.04 93.462,62.528 135.169,56.005ZM215.831,56.005C240.132,55.888 264.343,59.099 284.27,65.607C304.196,72.116 319.837,81.924 327,95C294.947,70.04 257.538,62.528 215.831,56.005ZM136.294,63.833C119.054,66.298 105.264,69.448 94.712,74.007C84.161,78.565 76.847,84.532 72.558,92.629C86.525,79.505 115.8,69.37 136.294,63.833ZM214.705,63.833C231.945,66.298 245.736,69.448 256.286,74.007C266.839,78.565 274.152,84.532 278.441,92.629C264.475,79.505 235.199,69.37 214.705,63.833ZM137.062,47.667C116.017,46.696 96.103,45.569 77.715,47.485C59.328,49.401 42.467,54.36 27.532,65.563C76.931,49.838 92.609,51.208 137.062,47.667ZM213.937,47.667C234.981,46.696 254.896,45.569 273.285,47.485C291.672,49.401 308.532,54.36 323.468,65.563C274.067,49.838 258.389,51.208 213.937,47.667ZM132.374,38.589C109.158,37.8 88.749,38.498 71.179,37.46C53.61,36.423 38.88,33.652 27.025,25.925C51.951,33.062 94.334,33.645 132.374,38.589ZM218.626,38.589C241.841,37.8 262.25,38.498 279.82,37.46C297.389,36.423 312.118,33.652 323.974,25.925C299.047,33.062 256.665,33.645 218.626,38.589ZM130.904,29.543C105.985,32.803 86.277,30.734 71.562,25.192C56.847,19.65 47.126,10.634 42.18,0C61.59,17.063 88.102,30.653 130.904,29.543ZM220.095,29.543C245.014,32.803 264.722,30.734 279.438,25.192C294.152,19.65 303.874,10.634 308.819,0C289.409,17.063 262.897,30.653 220.095,29.543Z" style="fill:white;"/>
        </g>
    </g>
</svg>
