<svg xmlns="http://www.w3.org/2000/svg" viewBox="0 0 32 32">
    <g fill="#7b7b7b">
        <path d="M19.3 13.4c.2-.2.3-.5.1-.7-.2-.2-.5-.3-.7-.1-.7.5-1.7.5-2.4 0-.2-.2-.5-.1-.7.1-.2.2-.1.5.1.7 1.1.7 2.5.7 3.6 0zM16.8 25.3c.2.1.5 0 .7-.2.1-.1.1-.2.1-.3l-.2-.9.7-.7c.2-.2.2-.5 0-.7-.1-.1-.2-.1-.3-.1l-.9-.1-.4-.9c-.1-.2-.5-.3-.7-.2-.1 0-.1.1-.2.2l-.4.9-.9.1c-.3 0-.5.3-.4.6 0 .1.1.2.1.3l.7.7-.2.9c0 .3.1.5.4.6h.3l.8-.4.8.2zm-1.2-1.4v-.2c0-.2 0-.3-.1-.4l-.1-.1h.2c.2 0 .3-.1.4-.3l.1-.2.1.2c.1.1.2.2.4.3h.2l-.1.1c-.1.1-.2.3-.1.4v.2l-.2-.1c-.1-.1-.3-.1-.5 0l-.3.1zM23.7 23.1c-.1-.2-.2-.3-.4-.3l-.9-.1-.4-.9c-.1-.2-.5-.3-.7-.2-.1 0-.1.1-.2.2l-.4.9-.9.1c-.3 0-.5.3-.4.6 0 .1.1.2.1.3l.7.7-.2.9c0 .3.1.5.4.6h.3l.8-.4.8.4c.2.1.5 0 .7-.2.1-.1.1-.2.1-.3l-.2-.9.7-.7c.1-.3.2-.5.1-.7zm-1.7.7c-.1.1-.2.3-.1.4v.2l-.2-.1c-.1-.1-.3-.1-.5 0l-.2.1v-.2c0-.2 0-.3-.1-.4l-.1-.1h.2c.2 0 .3-.1.4-.3l.1-.2.1.2c.1.1.2.2.4.3h.2l-.2.1zM12.7 23.1c-.1-.2-.2-.3-.4-.3l-.9-.1-.4-.9c-.1-.2-.5-.3-.7-.2-.1 0-.1.1-.2.2l-.4.9-.9.1c-.3 0-.5.3-.4.6 0 .1.1.2.1.3l.7.7-.2.9c0 .3.1.5.4.6h.3l.8-.4.8.4c.2.1.5 0 .7-.2.1-.1.1-.2.1-.3l-.2-.9.7-.7c.1-.3.2-.5.1-.7zm-1.7.7c-.1.1-.2.3-.1.4v.2l-.2-.1c-.1-.1-.3-.1-.5 0l-.2.1v-.2c0-.2 0-.3-.1-.4l-.1-.1h.2c.2 0 .3-.1.4-.3l.1-.2.1.2c.1.1.2.2.4.3h.2l-.2.1z"/>
        <path d="M29.1 27.5l1.7-2.2c.2-.2.1-.5-.1-.7-.1-.1-.3-.1-.4-.1-.8.2-1.6.3-2.4.4-.3 0-.5.3-.5.5 0 .3.3.5.5.5.4 0 .8-.1 1.2-.1L28 27.2c-.1.2-.1.4 0 .6l1.5 1.9c-1.9.4-3.8.4-5.7.1l2.3-1.3c.2-.1.3-.3.2-.4v-7c0-.2-.2-.4-.4-.5-.2 0-.4-.1-.6-.1v-.9c0-2.5-2-4.5-4.5-4.5h-.5c1.3-.9 2-2.4 2-4 .5-.5.7-1.1.7-1.6v-1c0-.3-.2-.5-.5-.5V6.5C22.5 3.5 20 1 17 1c-.3 0-.5.2-.5.5s.2.5.5.5c2.3 0 4.2 1.7 4.5 4H18c-1.4 0-2.5-1.1-2.5-2.5 0-.3-.2-.5-.5-.5s-.5.2-.5.5c0 .9.4 1.8 1.1 2.5h-.1C14.1 6 13 4.9 13 3.5c0-.3-.2-.5-.5-.5s-.5.2-.5.5c0 .9.4 1.8 1 2.4-1.2-.2-2-1.3-2-2.4V2h4c.3 0 .5-.2.5-.5S15.3 1 15 1h-4.5c-.3 0-.5.2-.5.5v2C10 5.4 11.6 7 13.5 7h8v1h-9c-.3 0-.5.2-.5.5v1c0 .5.2 1.1.5 1.5 0 1.8 1 3.4 2.5 4.3v.7c0 1.4 1.1 2.5 2.5 2.5S20 17.4 20 16h1c1.9 0 3.5 1.6 3.5 3.5v.7c-4.6-.8-9.3-.9-13.9-.4l-.1-.2v-.1c0-1.6 1.1-3 2.6-3.4.3-.1.4-.3.4-.6-.1-.3-.3-.4-.6-.4-1.5.4-2.8 1.6-3.2 3.2l-1-1.5c0-.8-.4-1.6-1.1-2.1.6-.4.9-1 .9-1.7V9c0-1.1-.9-2-2-2h-2c-1.1 0-2 .9-2 2v3.8c-.8 0-1.5.6-1.5 1.4 0 .5.2 1 .6 1.2L3.8 17c.4.3.9.5 1.5.5h2.6l1.6 2.4c-.7.1-1.3.2-2 .3l-1-1.9c-.1-.2-.4-.3-.7-.2-.2.1-.3.4-.2.7l.9 1.6c-.2 0-.4.1-.6.1-.2 0-.4.3-.4.5v4c-1.3 0-2.6-.1-3.9-.5-.3-.1-.5.1-.6.4 0 .2 0 .3.1.4l1.7 2.2-1.7 2.2c-.2.2-.1.5.1.7.1 0 .1.1.2.1 2.7.7 5.5.7 8.2 0 .2-.1.4-.3.4-.5v-2.1c1.3-.2 2.7-.3 4.1-.3.3 0 .5-.2.5-.5s-.2-.5-.5-.5c-2.5.1-5 .4-7.5.9v-6c6.3-1.2 12.7-1.2 19 0v6c-3.1-.6-6.3-.9-9.5-.9-.3 0-.5.2-.5.5s.2.5.5.5c2 0 4 .1 6 .4v2c0 .2.2.4.4.5 2.7.7 5.5.7 8.2 0 .3-.1.4-.3.4-.6 0-.1 0-.1-.1-.2l-1.9-2.2zm-7.4-17.1L20.2 9H22v.5c0 .3-.1.7-.3.9zM19 9.2l1.8 1.8c-.8.2-1.6-.4-1.7-1.2v-.6zm-6 .3v-.3l1.8 1.8c-.8.2-1.6-.4-1.7-1.2-.1-.1-.1-.2-.1-.3zm2.7.9L14.2 9H16v.5c0 .3-.1.7-.3.9zm-2.1 1.4c.3.1.6.2.9.2 1.4 0 2.5-1.1 2.5-2.5V9h1v.5c0 1.4 1.1 2.5 2.5 2.5.3 0 .6-.1.9-.2-.5 2.2-2.6 3.5-4.7 3.1-1.6-.3-2.8-1.5-3.1-3.1zm3.9 5.7c-.8 0-1.5-.7-1.5-1.5v-.2c1 .3 2 .3 3 0v.2c0 .8-.7 1.5-1.5 1.5zM7.5 9v.8L5.7 8h.8c.6 0 1 .4 1 1zm-4 0c0-.5.3-.9.8-1l3.2 3.2V13c0 .6-.4 1-1 1H4.8l-1.3-.8V9zm1.8 7.5c-.3 0-.6-.1-.9-.3l-2.2-1.6c-.2-.1-.3-.4-.1-.6.1-.2.4-.2.6-.1l1.7 1c.1.1.2.1.3.1h1c.9 0 1.7.6 1.9 1.5H5.3zM2.4 29.7l1.5-1.9c.1-.2.1-.4 0-.6l-1.1-1.4c.9.1 1.8.2 2.7.2v2c0 .2.1.3.2.4L8 29.7c-1.8.4-3.7.4-5.6 0zm6.6-.6l-1.5-.9c.5 0 1-.1 1.5-.2v1.1zm15.5-.8l-1.5.8V28l1.5.3z"/>
        <circle cx="5.5" cy="12.5" r=".5"/>
        <path d="M4 5.7c.1.2.4.4.7.3.2-.1.4-.4.3-.7l-.5-1.5c-.1-.2-.4-.4-.7-.3-.2.1-.4.4-.3.7L4 5.7zM6.3 6c.3.1.6-.1.7-.3l.5-1.5c.1-.3-.1-.5-.3-.6s-.6 0-.7.2L6 5.3c-.1.3.1.6.3.7zM2.1 6.2c.1.2.4.3.7.2.2-.1.3-.4.1-.6l-.5-1c-.1-.3-.4-.4-.6-.2s-.4.4-.2.6l.5 1zM8.5 6.5c.1 0 .3-.1.4-.1l.5-.5c.2-.2.2-.5 0-.7-.3-.2-.6-.2-.8-.1l-.5.5c-.1.2-.1.6 0 .8.1 0 .3.1.4.1zM24.6 13.2c.1.2.4.3.7.2l4-2c.2-.1.3-.4.2-.7-.1-.2-.4-.3-.7-.2l-4 2c-.3.2-.4.5-.2.7zM24.3 11c.2.1.5 0 .7-.2l1-2c.1-.2 0-.5-.2-.7-.2-.1-.5 0-.7.2l-1 2c-.2.2-.1.5.2.7zM29.5 15c0-.3-.2-.5-.5-.5h-3c-.3 0-.5.2-.5.5s.2.5.5.5h3c.3 0 .5-.2.5-.5zM26.1 16.7c-.2.2-.1.5.1.7l1.5 1c.2.2.5.1.7-.1.2-.2.1-.5-.1-.7l-1.5-1c-.3-.2-.6-.1-.7.1z"/>
    </g>
</svg>
