<svg xmlns="http://www.w3.org/2000/svg" viewBox="0 0 32 32">
    <g fill="#7b7b7b">
        <path d="M26.2 23.4l-5-2c-.5-.2-.9-.8-.9-1.3v-.3c1.5-1 2.6-2.5 3.3-4.2h.1c1.3 0 2.4-1.1 2.4-2.4 0-.4-.1-.8-.3-1.2.4-.4.6-.9.7-1 .6-1 .7-2.1.4-3.2-.3-1-1-1.8-1.9-2.3-.1-1-.7-2-1.5-2.6-.8-.6-1.9-.9-2.9-.7C19.9 1.4 19 1 17.9 1s-2 .4-2.7 1.2c-1-.2-2 .1-2.9.7-.8.6-1.4 1.5-1.5 2.6-.8.4-1.5 1.2-1.9 2.2-.3 1.1-.2 2.2.4 3.2.1.1.3.6.7 1-.1.1-.1.2-.2.4-.2-.3-.4-.5-.6-.8-.9-.9-2.2-1.4-3.5-1.4C3.1 10.3 1 12.4 1 15c0 1.5.7 3 1.9 3.9v.5H2v1h1v1H2v1h1.1c.4 1.1 1.5 1.9 2.7 1.9s2.3-.8 2.7-1.9h1.1v-1h-1v-1h1v-1h-1v-.5c1.2-.9 1.9-2.3 1.9-3.9.4.3.9.5 1.5.5h.1c.6 1.7 1.8 3.1 3.3 4.2v.3c0 .6-.4 1.1-.9 1.3l-5 2c-2.9 1.2-4.8 4-4.8 7.1v.6H31v-.5c0-3.1-1.9-5.9-4.8-7.1zm-20.4-.1c-.7 0-1.3-.4-1.7-1h3.3c-.2.6-.8 1-1.6 1zm2-2H3.9v-1h3.9v1zm-2-5.3c-.5 0-1-.4-1-1 0-.5.4-1 1-1s1 .4 1 1-.4 1-1 1zM8 18.3l-.2.1v1H6.3v-2.5c.8-.2 1.5-1 1.5-1.9 0-1.1-.9-1.9-1.9-1.9s-2 .9-2 1.9c0 .9.6 1.7 1.5 1.9v2.5H3.9v-1l-.2-.1C2.6 17.5 2 16.3 2 15c0-2.1 1.7-3.8 3.8-3.8h.1c1 0 2 .4 2.7 1.1.7.7 1.1 1.7 1.1 2.7 0 1.3-.6 2.5-1.7 3.3zM23.2 25l-2 1.5 1 1.5-2.4 2h-.1l2.8-7.1.2.1.5 2zm-7 5l-2.4-2 1-1.5-2-1.5.5-2 .2-.1 2.7 7.1zm-.2-3.2l1.9-1.9 1.9 1.9-1.2 3.2h-1.3L16 26.8zm5.6-4.3l-1.3 3.3-1.6-1.6 2.1-2.1c.1 0 .1.1.2.1l.6.3zm2.3-8c.2-.7.3-1.5.3-2.2v-.6c.6.2 1 .7 1 1.4s-.6 1.3-1.3 1.4zM9.9 8c.3-.8.9-1.5 1.6-1.8l.3-.1v-.3c.1-.9.5-1.6 1.2-2.1s1.5-.7 2.3-.5l.3.1.2-.3c.5-.7 1.3-1 2.2-1 .8 0 1.6.4 2.2 1l.2.2.3-.1c.8-.2 1.7 0 2.3.5.7.5 1.1 1.3 1.2 2.1V6l.3.1c.8.3 1.4 1 1.6 1.8.3.8.2 1.7-.3 2.4v.1s-.2.4-.5.7c-.3-.2-.6-.4-1-.5v-2h-.9c-1.2 0-2.3-.5-3.2-1.3l-.3-.3-.3.3c-1.5 1.5-3.4 2.3-5.5 2.3h-2.4v1c-.4.1-.7.2-1 .5-.3-.3-.4-.7-.4-.7v-.1c-.6-.6-.7-1.5-.4-2.3zm.8 5.1c0-.6.4-1.2 1-1.4v.6c0 .8.1 1.5.3 2.2-.8-.1-1.3-.7-1.3-1.4zm1.9-.8v-1.6H14c2.2 0 4.2-.8 5.8-2.2.9.8 2.1 1.2 3.4 1.3v2.6c0 3.4-2.1 6.4-5.3 7.5-3.2-1.2-5.3-4.2-5.3-7.6zm5.2 8.5l.2.1.2-.1c.5-.2.9-.3 1.3-.6 0 .5.2.9.5 1.3l-2 2-2-2c.3-.4.5-.8.5-1.3.4.3.8.5 1.3.6zM15 22.3c.1 0 .1-.1.2-.1l2.1 2.1-1.6 1.6-1.3-3.3.6-.3zm-5 2l2-.8-.5 1.9 1.8 1.4-1 1.4 2.2 1.8h-4v-2.9h-1V30H5.9c.1-2.5 1.7-4.7 4.1-5.7zM26.2 30v-2.9h-1V30h-4l2.2-1.8-1-1.4 1.8-1.4-.5-1.9 2 .8c2.4 1 4 3.2 4.2 5.7h-3.7z"/>
        <circle cx="20.8" cy="12.1" r=".5"/>
        <circle cx="15" cy="12.1" r=".5"/>
        <path d="M19.9 16h-1c0 .5-.4 1-1 1-.5 0-1-.4-1-1h-1c0 1.1.9 1.9 1.9 1.9 1.2 0 2.1-.8 2.1-1.9zM17.5 26.2h1v1h-1v-1zM17.5 28.1h1v1h-1v-1z"/>
    </g>
</svg>
